# xmcd CD database file
#
# Track frame offsets:
#	150
#	13600
#	28349
#	43412
#	60973
#	77922
#	93447
#	110882
#	125814
#	142916
#
# Disc length: 2124 seconds
#
# Revision: 0
# Processed by: cddbd v1.4PL0 Copyright (c) Steve Scherf et al.
# Submitted via: CDex 1.50Beta7
#
DISCID=8c084a0a
DTITLE=Blake Shelton -  
DYEAR=1900
DGENRE=Country
TTITLE0=Everytime I look at you
TTITLE1=All over me
TTITLE2=She doesn't know shes got it
TTITLE3=Austin
TTITLE4=Ol red
TTITLE5=I thought there was time
TTITLE6=Same old song
TTITLE7=Thats what I call home
TTITLE8=Problems at home
TTITLE9=If I was your man
EXTD=
EXTT0=
EXTT1=
EXTT2=
EXTT3=
EXTT4=
EXTT5=
EXTT6=
EXTT7=
EXTT8=
EXTT9=
PLAYORDER=
